<?xml version="1.0" standalone="no"?>
<!DOCTYPE svg PUBLIC "-//W3C//DTD SVG 20010904//EN"
 "http://www.w3.org/TR/2001/REC-SVG-20010904/DTD/svg10.dtd">
<svg version="1.0" xmlns="http://www.w3.org/2000/svg"
 width="496.000000pt" height="500.000000pt" viewBox="0 0 496.000000 500.000000"
 preserveAspectRatio="xMidYMid meet">

<g transform="translate(0.000000,500.000000) scale(0.100000,-0.100000)"
fill="#000000" stroke="none">
<path d="M2379 4936 c-2 -2 -51 -7 -109 -11 -58 -3 -150 -14 -205 -25 -55 -10
-117 -21 -137 -24 -44 -8 -307 -93 -322 -105 -6 -4 -27 -14 -46 -21 -42 -16
-248 -118 -306 -151 -23 -13 -71 -41 -108 -63 -112 -64 -244 -172 -391 -320
-257 -258 -449 -555 -570 -881 -32 -85 -45 -127 -71 -225 -18 -71 -27 -120
-43 -252 -46 -361 -36 -573 44 -967 12 -59 100 -313 126 -363 5 -10 9 -25 9
-33 0 -9 9 -25 20 -37 10 -11 22 -33 25 -49 4 -15 13 -33 21 -40 8 -6 14 -22
14 -35 0 -13 6 -27 13 -31 7 -4 19 -22 26 -40 7 -18 27 -47 45 -65 17 -18 43
-49 58 -68 14 -19 42 -53 62 -75 20 -22 36 -43 36 -46 0 -4 16 -23 35 -44 19
-21 41 -52 49 -70 9 -18 25 -35 37 -38 14 -4 18 -10 13 -19 -4 -7 -4 -10 0 -6
10 8 56 -31 56 -48 0 -7 9 -15 19 -19 11 -3 26 -19 33 -35 7 -17 19 -30 26
-30 8 0 10 5 6 12 -5 10 -4 10 5 2 7 -6 13 -21 14 -33 1 -18 6 -22 25 -18 15
3 28 -3 41 -19 10 -13 23 -24 29 -24 5 0 16 -8 23 -17 13 -17 13 -17 -6 -3
-18 14 -19 14 -7 -2 8 -9 20 -14 28 -11 7 3 17 -2 20 -11 3 -9 11 -16 16 -16
16 0 69 -41 64 -49 -3 -4 0 -8 7 -8 7 0 48 -22 92 -50 415 -258 861 -384 1321
-370 359 10 643 73 935 207 125 57 377 209 481 290 147 114 366 329 453 445
32 44 68 88 80 98 11 10 13 16 5 12 -10 -4 -9 -1 3 8 9 8 17 19 17 25 0 5 7
13 16 16 8 3 13 10 10 15 -3 5 1 12 10 15 8 3 13 10 10 14 -3 5 3 18 14 29 10
12 16 24 13 27 -4 3 -2 6 3 6 6 0 16 16 23 35 7 19 17 35 22 35 6 0 8 4 5 8
-7 12 29 63 39 55 4 -5 5 -3 2 3 -4 7 3 34 14 60 12 27 29 67 39 89 10 22 28
68 40 102 16 43 26 60 36 56 15 -6 19 12 5 21 -5 4 -5 20 2 41 5 19 14 32 19
29 4 -3 7 3 5 13 -3 25 24 143 33 143 4 0 5 10 3 23 -3 14 2 29 11 36 17 15
22 36 6 26 -6 -3 -10 1 -10 9 0 9 5 16 11 16 7 0 9 10 5 24 -3 14 -1 37 5 53
26 64 22 475 -7 673 -2 19 -6 52 -7 72 -1 21 -5 38 -9 38 -3 0 -5 18 -4 41 2
22 0 36 -4 29 -9 -15 -23 67 -14 83 4 7 3 9 -1 5 -5 -5 -27 49 -50 120 -24 70
-54 155 -69 189 -42 101 -76 177 -86 193 -124 212 -206 329 -328 470 -75 86
-224 242 -270 283 -18 15 -32 32 -32 38 0 5 -4 7 -10 4 -5 -3 -10 -1 -10 6 0
7 -3 10 -6 6 -3 -3 -11 -1 -18 4 -46 39 -169 125 -223 156 -36 21 -77 46 -91
56 -15 9 -34 20 -43 23 -9 3 -61 28 -115 55 -54 27 -104 49 -111 49 -7 0 -30
9 -50 20 -21 11 -45 20 -54 20 -8 0 -19 3 -23 7 -3 4 -13 8 -21 9 -8 1 -36 9
-62 18 -26 9 -52 16 -57 15 -5 0 -12 3 -15 8 -5 8 -106 28 -236 48 -16 2 -46
7 -65 10 -73 11 -404 28 -411 21z m361 -167 c92 -11 277 -44 325 -59 223 -70
452 -175 640 -293 181 -113 278 -199 483 -428 121 -135 256 -332 318 -464 175
-376 246 -697 240 -1090 -2 -110 -8 -220 -14 -245 -6 -25 -15 -76 -22 -115 -6
-38 -38 -153 -70 -255 -125 -391 -323 -704 -613 -972 -295 -272 -615 -449
-987 -545 -376 -96 -864 -84 -1249 33 -133 40 -383 153 -441 198 -8 7 -26 17
-40 23 -14 6 -46 26 -72 46 -25 20 -60 43 -76 51 -82 42 -388 322 -499 455
-48 58 -129 182 -185 281 -130 232 -214 467 -252 705 -80 495 -13 999 189
1432 90 193 291 458 494 651 230 219 596 424 936 523 88 26 272 61 375 72 74
7 439 4 520 -4z"/>
<path d="M1921 4574 c-30 -8 -79 -28 -109 -46 -73 -42 -174 -138 -196 -187
l-18 -40 -92 1 c-104 0 -175 -21 -263 -79 -93 -61 -148 -143 -172 -255 -12
-56 -13 -57 -54 -63 -106 -18 -269 -123 -354 -227 -167 -204 -216 -444 -138
-683 14 -41 25 -80 25 -86 0 -6 -22 -35 -49 -65 -104 -114 -165 -285 -165
-469 -1 -182 52 -306 185 -436 l79 -76 -15 -69 c-35 -163 20 -354 147 -516 95
-120 187 -190 311 -237 17 -7 43 -36 71 -80 50 -77 92 -113 153 -131 37 -11
51 -10 122 10 66 19 83 21 95 10 9 -7 16 -16 16 -21 0 -20 47 -107 84 -158
148 -197 404 -273 609 -179 40 18 92 45 117 60 164 98 163 98 217 59 61 -44
221 -126 276 -141 31 -8 83 -11 151 -8 95 4 109 7 177 43 124 63 190 115 234
181 81 122 73 117 178 118 136 2 204 43 291 175 42 64 52 73 137 117 194 103
302 231 370 442 30 92 31 103 26 217 l-4 120 49 40 c69 56 111 114 149 203 44
107 58 173 58 277 0 165 -52 320 -152 453 l-40 53 12 67 c51 274 24 436 -100
623 -106 157 -244 265 -397 310 -33 10 -44 18 -48 38 -10 48 -37 116 -62 155
-32 52 -118 133 -165 158 -61 30 -184 58 -261 58 l-71 0 -20 37 c-29 54 -119
138 -189 178 -92 51 -172 69 -286 62 -128 -7 -217 -42 -329 -126 l-54 -41 -43
40 c-117 107 -332 157 -493 114z m1104 -179 c108 -53 165 -114 210 -227 l27
-68 43 0 c32 0 52 7 75 26 27 23 37 26 80 21 74 -9 144 -44 194 -97 54 -58 80
-107 102 -194 20 -80 41 -100 123 -114 71 -13 216 -73 271 -113 30 -22 51 -52
89 -131 68 -139 88 -236 72 -358 -15 -114 -31 -152 -92 -207 -73 -68 -65 -101
33 -137 89 -33 184 -166 207 -291 44 -240 -43 -435 -228 -512 -85 -34 -120
-30 -238 30 -59 30 -64 31 -90 17 -16 -9 -37 -32 -48 -53 -24 -45 -17 -61 46
-96 38 -21 59 -25 147 -27 116 -3 132 -10 154 -73 6 -20 12 -67 11 -106 -2
-175 -123 -364 -289 -451 -70 -36 -146 -46 -183 -22 -10 6 -25 8 -34 5 -23 -9
-38 -77 -31 -140 12 -98 -39 -138 -171 -136 -33 0 -68 4 -79 8 -10 4 -40 3
-66 -3 -42 -8 -49 -13 -60 -45 -39 -112 -74 -158 -160 -212 -88 -56 -116 -64
-220 -64 -75 1 -107 5 -152 23 -95 38 -176 137 -214 261 -19 62 -20 484 -1
521 13 26 27 31 161 49 88 12 287 77 381 124 119 59 362 212 450 283 99 79
243 224 275 276 43 71 19 128 -110 253 -39 39 -90 89 -113 111 -23 23 -55 49
-72 57 -16 9 -43 29 -60 44 -16 16 -47 42 -68 57 -22 17 -36 35 -33 43 4 9 -3
13 -20 13 -13 0 -64 18 -112 41 -306 144 -445 181 -727 195 -258 12 -504 -44
-766 -176 -32 -17 -61 -30 -64 -30 -3 0 -9 0 -14 0 -5 0 -40 -25 -76 -55 -37
-30 -71 -55 -75 -55 -4 0 -33 -25 -66 -56 -32 -31 -78 -65 -101 -75 -24 -11
-43 -24 -43 -28 0 -5 -14 -18 -31 -29 -17 -10 -66 -61 -110 -112 -90 -105 -95
-126 -54 -198 40 -70 93 -129 200 -221 127 -110 209 -165 415 -278 201 -110
399 -180 560 -198 40 -4 61 -12 76 -29 20 -23 21 -36 23 -237 2 -229 -5 -292
-43 -374 -21 -47 -123 -161 -134 -150 -2 2 -11 -2 -19 -10 -27 -28 -122 -48
-197 -42 -178 12 -278 93 -340 272 l-23 70 -37 -2 c-19 -1 -55 -12 -78 -23
-50 -24 -109 -26 -169 -5 -77 27 -111 78 -124 180 -4 33 -12 66 -17 72 -6 7
-32 13 -59 13 -26 0 -60 5 -76 12 -15 6 -31 11 -35 10 -5 -1 -8 2 -8 7 0 5
-13 11 -28 14 -77 15 -205 160 -243 274 -38 114 -18 244 48 314 28 31 41 92
23 114 -6 8 -27 17 -46 21 -19 3 -34 10 -34 14 0 5 -15 14 -34 20 -64 21 -163
134 -200 230 -29 74 -32 201 -7 300 35 138 99 225 213 287 26 14 50 34 53 44
7 21 -8 54 -41 89 -51 55 -83 185 -77 315 9 206 94 339 272 424 112 54 141 59
185 32 33 -21 34 -24 38 -92 3 -66 2 -70 -17 -64 -52 17 -142 17 -176 0 -114
-58 -169 -143 -169 -260 0 -81 19 -128 74 -192 68 -78 196 -84 268 -13 l28 28
8 -31 c8 -30 11 -32 62 -35 103 -6 148 40 88 89 l-31 26 5 315 c3 196 2 322
-4 333 -6 9 -25 23 -44 31 -29 12 -34 19 -34 47 0 70 97 183 185 216 73 28
121 26 187 -4 29 -14 65 -25 79 -25 23 0 28 6 39 48 19 75 32 104 63 148 59
85 157 135 278 142 112 6 182 -14 247 -73 69 -63 101 -134 122 -272 14 -97 21
-119 39 -135 56 -44 73 -16 83 139 6 85 15 140 27 168 42 96 134 159 252 174
93 12 145 4 224 -34z m-1924 -942 c36 -22 39 -31 41 -131 1 -94 -13 -125 -69
-149 -45 -18 -83 -5 -119 42 -48 63 -41 192 13 234 32 26 94 27 134 4z m1516
-644 c354 -48 750 -254 1002 -522 52 -55 54 -59 40 -81 -42 -69 -298 -272
-474 -377 -119 -71 -143 -83 -250 -122 -256 -94 -433 -112 -680 -68 -209 37
-392 108 -556 217 -37 24 -70 44 -73 44 -4 0 -42 25 -84 57 -105 77 -272 243
-272 270 0 32 85 138 159 197 366 293 809 437 1188 385z"/>
<path d="M1990 4301 c-75 -16 -130 -61 -130 -106 0 -49 46 -59 92 -20 50 43
117 31 136 -25 9 -26 8 -30 -6 -31 -9 0 -53 -2 -97 -3 -113 -4 -110 -3 -143
-31 -74 -62 -37 -216 64 -265 79 -39 162 -15 257 74 41 38 44 48 23 65 -11 10
-25 7 -63 -12 -72 -36 -107 -42 -142 -21 -29 17 -51 51 -51 78 0 19 29 25 163
33 l117 6 0 57 c0 70 -40 155 -85 181 -38 22 -90 29 -135 20z"/>
<path d="M2826 4286 c-51 -19 -114 -80 -139 -136 -14 -32 -20 -64 -19 -113 3
-152 95 -257 227 -257 66 0 108 16 158 60 68 59 39 133 -32 84 -47 -32 -136
-34 -174 -4 -26 20 -53 82 -43 98 3 5 69 12 148 16 78 3 144 8 146 11 2 2 -1
32 -8 67 -12 67 -47 128 -92 161 -35 26 -120 32 -172 13z m119 -112 c52 -56
29 -72 -88 -66 -54 4 -57 5 -52 25 10 34 53 67 86 67 20 0 38 -9 54 -26z"/>
<path d="M2146 3827 c-60 -34 -64 -59 -16 -106 l40 -39 0 -260 0 -260 -32 -7
c-41 -9 -47 -18 -39 -58 l7 -32 134 3 c82 1 138 7 147 14 18 14 13 68 -7 79
-8 4 -27 10 -42 14 l-28 5 0 314 0 315 -26 20 c-35 27 -89 27 -138 -2z"/>
<path d="M3583 3823 c-27 -5 -63 -48 -63 -74 0 -32 59 -89 92 -89 40 0 88 48
88 87 0 49 -58 87 -117 76z"/>
<path d="M1438 3779 c-52 -39 -27 -109 44 -124 37 -8 71 13 88 55 11 28 11 34
-7 58 -27 36 -86 41 -125 11z"/>
<path d="M2928 3589 c-34 -20 -20 -50 55 -119 39 -37 82 -85 95 -108 l22 -40
-36 -48 c-48 -62 -60 -74 -111 -107 -42 -27 -54 -55 -35 -83 11 -18 69 -26
132 -19 47 5 61 11 66 27 3 11 1 25 -5 31 -6 6 -11 18 -11 26 1 16 57 89 62
80 2 -2 18 -21 37 -41 33 -36 34 -39 18 -56 -20 -22 -22 -48 -4 -59 6 -4 55
-6 107 -5 99 4 126 15 112 50 -7 20 -93 134 -135 178 -39 43 -32 59 64 157 73
74 92 108 71 121 -13 8 -182 15 -198 9 -19 -7 -18 -39 3 -73 15 -27 15 -30 -1
-54 -9 -14 -20 -26 -24 -26 -4 0 -24 15 -45 33 -37 30 -38 34 -26 60 17 37 5
47 -78 63 -82 16 -112 17 -135 3z"/>
<path d="M1785 3575 c-51 -18 -100 -71 -116 -125 -12 -39 -11 -46 8 -79 25
-44 95 -88 183 -116 52 -17 66 -26 68 -44 10 -67 -91 -81 -152 -22 -35 34 -76
41 -97 15 -13 -15 -14 -73 -3 -127 6 -27 7 -27 24 -12 17 15 22 15 71 1 75
-23 154 -21 195 5 18 11 50 43 70 70 31 42 36 56 31 85 -3 20 -18 51 -32 70
-23 30 -48 44 -187 109 -39 18 -55 42 -39 58 5 5 33 12 61 15 49 4 53 3 84
-32 19 -20 38 -36 44 -36 35 0 59 124 30 148 -11 8 -159 33 -192 32 -6 -1 -29
-7 -51 -15z"/>
<path d="M2565 3575 c-115 -40 -184 -247 -124 -372 48 -98 189 -163 295 -134
46 12 107 55 125 89 11 20 10 26 -8 44 l-21 21 -44 -22 c-52 -25 -117 -27
-158 -6 -35 18 -70 61 -70 86 0 17 10 19 103 20 56 1 129 4 162 8 l60 6 -1 55
c-1 30 -8 69 -17 85 -22 43 -87 106 -124 121 -41 18 -127 17 -178 -1z m154
-121 c12 -15 21 -37 21 -50 0 -23 -2 -24 -90 -24 -84 0 -90 1 -90 21 0 11 13
34 29 50 40 40 100 41 130 3z"/>
<path d="M3577 3579 c-79 -13 -107 -51 -68 -93 16 -18 20 -43 26 -169 l7 -147
-31 -11 c-24 -9 -31 -17 -31 -38 0 -45 15 -51 127 -51 91 0 103 2 113 19 18
35 12 60 -16 67 l-25 7 2 198 c2 114 -1 203 -7 208 -16 15 -48 19 -97 10z"/>
<path d="M1429 3567 c-65 -29 -77 -67 -31 -94 l29 -16 -3 -146 c-2 -80 -3
-149 -3 -153 -1 -4 -10 -10 -22 -13 -16 -5 -19 -14 -17 -38 4 -40 37 -50 133
-42 101 9 137 48 73 81 l-31 16 6 194 c5 166 4 195 -9 209 -18 18 -87 19 -125
2z"/>
<path d="M3868 3560 c-93 -49 -92 -140 0 -140 24 0 32 6 41 30 9 26 15 30 49
30 43 0 76 -22 86 -56 9 -30 -15 -51 -66 -59 -120 -18 -191 -67 -208 -141 -8
-32 -5 -47 13 -84 29 -60 76 -90 139 -90 54 0 80 10 119 46 l25 24 22 -30 c32
-43 91 -43 134 0 32 32 34 58 6 71 -56 28 -53 19 -50 133 3 78 -1 119 -12 154
-18 53 -64 105 -109 121 -46 18 -147 13 -189 -9z m172 -320 c0 -41 -4 -52 -24
-65 -14 -9 -39 -15 -58 -13 -25 2 -35 9 -42 31 -14 39 1 58 60 79 27 9 52 17
57 18 4 0 7 -22 7 -50z"/>
<path d="M761 2621 c-45 -12 -80 -39 -116 -90 -28 -40 -30 -48 -30 -139 0
-110 11 -138 75 -201 66 -64 169 -80 250 -38 86 43 95 117 10 83 -54 -22 -102
-20 -151 5 -39 20 -76 75 -61 91 9 9 49 15 160 23 l94 7 15 36 c8 20 13 50 10
68 -7 42 -49 107 -87 134 -34 24 -115 34 -169 21z m105 -106 c20 -13 51 -72
43 -79 -2 -2 -46 -6 -96 -9 -92 -6 -93 -6 -93 16 0 65 92 111 146 72z"/>
<path d="M4075 2621 c-45 -11 -68 -26 -108 -70 -21 -24 -39 -55 -43 -78 -4
-21 -11 -46 -16 -56 -5 -10 -10 -51 -10 -92 -1 -59 4 -80 21 -109 50 -80 122
-113 225 -102 94 10 169 66 160 120 -5 33 -26 36 -73 10 -85 -45 -182 -23
-201 45 -5 20 -10 39 -10 44 0 4 62 7 138 7 94 0 142 4 150 12 18 18 14 108
-7 153 -45 97 -128 139 -226 116z m96 -114 c23 -17 41 -56 35 -73 -4 -10 -24
-14 -73 -14 -118 0 -134 13 -87 69 21 26 33 31 67 31 23 0 49 -6 58 -13z"/>
<path d="M955 1804 c-81 -42 -119 -114 -113 -213 4 -79 35 -134 102 -183 44
-31 102 -37 182 -17 63 16 84 46 85 123 0 33 1 99 2 146 3 115 -9 132 -96 148
-86 16 -126 15 -162 -4z m148 -104 c41 -33 65 -158 35 -188 -7 -7 -37 -12 -68
-12 -48 0 -60 4 -82 28 -39 40 -42 122 -7 166 26 33 84 36 122 6z"/>
<path d="M3895 1781 c-63 -15 -107 -55 -149 -135 -48 -90 -31 -210 37 -260 38
-28 142 -34 188 -11 56 28 79 55 79 91 0 40 -12 49 -42 31 -61 -39 -149 -26
-166 22 l-10 28 52 -3 c65 -4 163 9 177 23 14 14 13 109 -2 144 -21 52 -99 85
-164 70z m61 -125 c11 -46 2 -60 -41 -62 -58 -1 -75 6 -75 30 0 71 99 98 116
32z"/>
<path d="M3528 1662 c-32 -4 -35 -23 -13 -62 27 -47 8 -154 -42 -235 -17 -27
-26 -12 -53 87 -16 60 -18 82 -10 98 6 12 10 33 8 47 -4 34 -42 45 -112 32
-83 -15 -96 -51 -43 -115 30 -35 87 -142 87 -162 0 -5 14 -21 30 -37 22 -21
30 -37 28 -55 -3 -26 -3 -26 -93 -18 -28 3 -30 1 -33 -38 -2 -25 2 -45 10 -51
22 -18 117 -34 137 -23 65 34 143 181 201 377 12 39 30 79 41 89 22 19 25 53
7 58 -22 7 -121 12 -150 8z"/>
<path d="M1300 1651 c-37 -10 -37 -45 -1 -87 17 -19 31 -42 31 -50 0 -25 50
-142 82 -194 53 -85 25 -127 -63 -96 l-52 19 -19 -23 c-42 -51 -7 -112 73
-129 123 -27 183 34 294 298 15 36 38 81 51 100 26 39 31 80 12 99 -7 7 -43
12 -90 12 l-78 0 0 -30 c0 -21 8 -36 29 -51 l29 -22 -41 -63 c-23 -35 -45 -64
-49 -64 -12 0 -49 132 -55 200 -3 36 -10 71 -16 78 -10 13 -94 15 -137 3z"/>
<path d="M1918 1356 c-59 -16 -110 -55 -132 -99 -43 -91 6 -166 139 -216 33
-13 80 -31 104 -40 24 -9 51 -27 59 -39 13 -20 12 -24 -21 -57 -54 -54 -116
-43 -201 35 l-45 41 -20 -20 c-15 -15 -21 -34 -21 -63 0 -56 5 -62 70 -92 129
-60 278 -15 331 99 25 53 24 95 -3 135 -33 48 -64 67 -164 105 -87 33 -89 34
-92 69 -2 27 2 37 18 46 28 15 81 3 134 -31 l45 -28 20 25 c11 14 23 39 26 56
10 45 -17 67 -96 78 -80 12 -93 12 -151 -4z"/>
<path d="M2804 1331 c-147 -67 -179 -326 -57 -456 60 -66 92 -80 168 -78 100
2 140 21 156 73 11 35 10 43 -4 57 -15 15 -21 15 -76 0 -93 -26 -113 -23 -155
23 -34 38 -46 73 -28 84 4 2 47 6 95 7 130 3 131 3 151 59 16 46 17 53 2 104
-37 127 -139 178 -252 127z m123 -119 c45 -53 27 -75 -69 -87 l-58 -7 0 37 c0
27 7 44 30 66 35 35 62 33 97 -9z"/>
<path d="M2295 2695 c-128 -45 -215 -124 -280 -255 -38 -75 -55 -143 -55 -221
0 -124 47 -233 149 -341 103 -110 208 -149 379 -141 104 4 169 25 244 76 202
138 286 400 196 610 -44 101 -146 209 -238 250 -122 55 -277 63 -395 22z m309
-174 c172 -84 236 -257 159 -424 -58 -123 -149 -186 -279 -195 -115 -7 -210
29 -282 108 -76 84 -101 237 -58 360 56 163 284 238 460 151z"/>
<path d="M2374 2371 c-17 -10 -42 -36 -54 -57 -65 -104 18 -224 154 -224 47 0
53 3 98 50 45 47 48 53 48 104 0 45 -5 60 -27 87 -15 17 -42 38 -60 45 -47 20
-122 18 -159 -5z"/>
</g>
</svg>
