<?xml version="1.0" encoding="UTF-8" ?>
<!DOCTYPE svg PUBLIC "-//W3C//DTD SVG 1.1//EN" "http://www.w3.org/Graphics/SVG/1.1/DTD/svg11.dtd">
<svg width="240pt" height="240pt" viewBox="0 0 240 240" version="1.1" xmlns="http://www.w3.org/2000/svg">
<g id="#ffffffff">
</g>
<g id="#333333ff">
<path fill="#333333" opacity="1.00" d=" M 115.23 42.23 C 129.79 41.33 144.57 44.57 157.35 51.63 C 172.05 59.68 184.07 72.58 190.91 87.90 C 199.57 106.94 199.98 129.53 192.09 148.90 C 185.35 165.72 172.46 179.98 156.43 188.43 C 144.71 194.69 131.34 197.84 118.05 197.46 C 99.81 197.11 81.81 189.95 68.24 177.75 C 53.93 165.09 44.59 146.95 42.70 127.92 C 40.83 110.43 45.07 92.35 54.68 77.62 C 67.79 57.16 90.92 43.50 115.23 42.23 M 111.56 49.42 C 118.89 58.46 121.98 70.65 119.26 82.04 C 122.82 88.90 127.76 95.01 131.34 101.88 C 132.23 108.04 124.11 107.21 120.26 108.63 C 121.22 110.71 122.00 112.88 122.47 115.12 C 120.07 116.77 117.39 117.91 114.67 118.91 C 116.89 119.86 119.30 120.52 121.18 122.10 C 121.78 124.50 118.85 126.40 119.56 128.94 C 120.09 133.43 119.89 138.99 115.75 141.78 C 110.12 145.07 103.25 144.50 96.99 144.32 C 95.67 144.48 93.72 143.63 92.89 145.06 C 90.93 148.30 90.62 152.22 90.30 155.91 C 89.72 164.97 88.83 174.00 88.18 183.06 C 107.02 192.57 130.11 193.10 149.29 184.23 C 164.12 177.50 176.43 165.49 183.59 150.87 C 191.47 134.97 192.96 116.04 187.71 99.09 C 182.33 81.43 169.74 66.11 153.45 57.41 C 140.74 50.44 125.92 47.94 111.56 49.42 Z" />
<path fill="#333333" opacity="1.00" d=" M 156.30 84.85 C 155.59 83.10 157.08 81.39 158.80 81.21 C 160.92 81.86 162.14 83.88 163.58 85.42 C 174.16 97.98 178.45 115.42 175.20 131.49 C 172.96 142.46 167.58 153.08 159.09 160.51 C 157.24 159.94 155.01 157.84 156.76 155.93 C 161.91 150.35 166.20 143.89 168.50 136.60 C 173.62 121.59 171.00 104.23 161.66 91.41 C 160.07 89.07 157.96 87.13 156.30 84.85 Z" />
<path fill="#333333" opacity="1.00" d=" M 145.22 94.13 C 147.53 92.31 149.58 95.45 150.97 97.02 C 162.91 111.28 161.84 134.53 148.22 147.31 C 146.18 149.23 142.70 145.86 144.70 143.80 C 148.11 139.83 151.20 135.47 152.65 130.37 C 156.17 119.45 153.24 106.84 145.38 98.50 C 144.08 97.41 143.51 95.17 145.22 94.13 Z" />
<path fill="#333333" opacity="1.00" d=" M 133.31 106.35 C 134.42 105.19 136.07 105.97 136.95 106.98 C 144.34 114.56 144.09 128.26 135.99 135.23 C 133.44 136.97 130.70 132.89 133.05 131.04 C 138.10 125.74 138.59 116.80 133.72 111.22 C 132.43 109.96 131.23 107.52 133.31 106.35 Z" />
</g>
</svg>
